<svg width="150" height="139" viewBox="0 0 150 139" fill="none" xmlns="http://www.w3.org/2000/svg">
<path d="M72 139C111.765 139 144 107.884 144 69.5C144 31.1162 111.765 0 72 0C32.2355 0 0 31.1162 0 69.5C0 107.884 32.2355 139 72 139Z" fill="#4BC190"/>
<path opacity="0.3" d="M72 126C104.033 126 130 101.152 130 70.5C130 39.8482 104.033 15 72 15C39.9675 15 14 39.8482 14 70.5C14 101.152 39.9675 126 72 126Z" fill="#356CB6"/>
<path d="M31 124.015C30.7699 124.015 30.5766 124.025 30.4143 124.041C30.4284 123.898 30.4375 123.732 30.4375 123.538V32.6981C30.4375 31.3974 31.6033 30.2678 33.125 30.2678H109.625C111.147 30.2678 112.313 31.3974 112.313 32.6981V123.538C112.313 123.879 112.236 123.99 112.202 124.025C112.166 124.063 112.08 124.117 111.841 124.134C111.601 124.152 111.301 124.127 110.91 124.092L110.856 124.087C110.491 124.054 110.069 124.015 109.625 124.015H31Z" fill="#FFA90B" stroke="black"/>
<path d="M37.875 37.1052H104.875V118.155H58.8199L37.875 98.8995V37.1052Z" fill="white" stroke="black"/>
<path d="M81.3399 117.1H58.8933V99.2386L81.3399 117.1Z" fill="#ECEFF1"/>
<path d="M57.0626 117.516L39.0976 101H57.0626V117.516Z" fill="#BCFFFF" stroke="black"/>
<path d="M63.9629 29.4279C64.5005 28.8555 64.9595 28.4589 65.3442 28.1307L65.3503 28.1255C65.9996 27.5661 66.5557 27.0871 66.8679 26.283L63.6442 29.7678L63.9629 29.4279ZM63.9629 29.4279L64.3274 29.7702M63.9629 29.4279L64.3274 29.7702M62.3124 30.2678V33.6749V34.1749H61.8124H52.2499C51.4108 34.1749 50.5237 34.4158 49.7995 34.7966C49.0596 35.1855 48.5745 35.6737 48.4169 36.1075C48.1475 36.8504 47.891 38.0401 47.7054 39.0355H94.9612L94.3222 36.079C94.1539 35.6523 93.674 35.177 92.9503 34.7966C92.2261 34.4158 91.3391 34.1749 90.4999 34.1749H80.9374H80.4374V33.6749V30.2678H79.1057H78.8881L78.7398 30.1086L78.4246 29.7702C78.4244 29.77 78.4242 29.7698 78.424 29.7696C77.9063 29.2184 77.4628 28.8367 77.0824 28.5103C77.0823 28.5103 77.0823 28.5102 77.0823 28.5102C77.0823 28.5102 77.0822 28.5102 77.0822 28.5102L77.0601 28.4912C76.6036 28.0999 76.1324 27.6959 75.7761 27.1485C75.719 27.0607 75.6653 26.97 75.615 26.8758C74.8252 28.3202 73.2049 29.291 71.3749 29.291C69.5485 29.291 67.9309 28.3239 67.1394 26.8841C67.0871 26.9803 67.0311 27.0729 66.9714 27.1625C66.6181 27.6935 66.1523 28.0947 65.6998 28.4843L65.6705 28.5095L65.6687 28.511C65.2878 28.8361 64.8458 29.2182 64.3276 29.7699L62.3124 30.2678ZM62.3124 30.2678H63.6442H63.8608L64.0089 30.1098L64.3274 29.7702M62.3124 30.2678L64.3274 29.7702" fill="#ECEFF1" stroke="black"/>
<mask id="path-8-inside-1_452_200" fill="white">
<path d="M60.75 28.791V32.6981H52.25C50.4034 32.6981 48.5504 33.5166 47.5516 34.6517H35.25V99.119L58.625 120.608H107.5V34.6517H95.1984C94.1996 33.5166 92.3466 32.6981 90.5 32.6981H82V28.791H79.5924C77.7755 26.8511 76.7874 26.8335 76.6832 24.921C76.6832 24.9093 76.6875 24.8956 76.6875 24.8839C76.6875 22.1919 74.3054 20 71.375 20C68.7485 20 66.5767 21.766 66.1517 24.0693C66.105 24.3369 66.0625 24.6045 66.0625 24.8839C66.0625 24.8956 66.0668 24.9093 66.0668 24.921C65.9626 26.8335 64.9745 26.8511 63.1576 28.791H60.75ZM56.5 115.892L40.3797 101.073H56.5V115.892ZM96.025 36.6052H105.375V118.655H58.625V99.119H37.375V36.6052H46.6443C46.2001 38.2931 45.875 40.5123 45.875 40.5123H96.875L96.025 36.6052ZM68.1918 24.8546C68.1918 24.7413 68.213 24.6319 68.2279 24.5225C68.2427 24.4307 68.247 24.3388 68.2704 24.249C68.5891 22.9381 69.8556 21.9536 71.375 21.9536C73.1026 21.9536 74.503 23.2214 74.554 24.7979L74.5497 24.8136L74.5561 24.9386C74.5221 26.5288 73.1111 27.8142 71.375 27.8142C69.6325 27.8142 68.213 26.519 68.1918 24.921V24.8546ZM62.875 30.7446H64.1309L64.7684 30.0667C65.2614 29.5392 65.6928 29.17 66.0689 28.8457C66.4408 28.5273 66.8148 28.2049 67.1463 27.8084C68.1174 28.9903 69.6431 29.7678 71.375 29.7678C73.1048 29.7678 74.6326 28.9922 75.6016 27.8103C75.931 28.203 76.3092 28.5253 76.6811 28.8457C77.0594 29.1719 77.4886 29.5392 77.9816 30.0667L78.6191 30.7446H79.875V34.6517H90.5C92.0661 34.6517 93.4495 35.5347 93.7619 36.1676L94.2825 38.5588H48.3676C48.5376 37.7051 48.7459 36.8221 48.952 36.2458C49.1836 35.6128 50.6159 34.6517 52.25 34.6517H62.875V30.7446Z"/>
</mask>
<path d="M60.75 28.791V32.6981H52.25C50.4034 32.6981 48.5504 33.5166 47.5516 34.6517H35.25V99.119L58.625 120.608H107.5V34.6517H95.1984C94.1996 33.5166 92.3466 32.6981 90.5 32.6981H82V28.791H79.5924C77.7755 26.8511 76.7874 26.8335 76.6832 24.921C76.6832 24.9093 76.6875 24.8956 76.6875 24.8839C76.6875 22.1919 74.3054 20 71.375 20C68.7485 20 66.5767 21.766 66.1517 24.0693C66.105 24.3369 66.0625 24.6045 66.0625 24.8839C66.0625 24.8956 66.0668 24.9093 66.0668 24.921C65.9626 26.8335 64.9745 26.8511 63.1576 28.791H60.75ZM56.5 115.892L40.3797 101.073H56.5V115.892ZM96.025 36.6052H105.375V118.655H58.625V99.119H37.375V36.6052H46.6443C46.2001 38.2931 45.875 40.5123 45.875 40.5123H96.875L96.025 36.6052ZM68.1918 24.8546C68.1918 24.7413 68.213 24.6319 68.2279 24.5225C68.2427 24.4307 68.247 24.3388 68.2704 24.249C68.5891 22.9381 69.8556 21.9536 71.375 21.9536C73.1026 21.9536 74.503 23.2214 74.554 24.7979L74.5497 24.8136L74.5561 24.9386C74.5221 26.5288 73.1111 27.8142 71.375 27.8142C69.6325 27.8142 68.213 26.519 68.1918 24.921V24.8546ZM62.875 30.7446H64.1309L64.7684 30.0667C65.2614 29.5392 65.6928 29.17 66.0689 28.8457C66.4408 28.5273 66.8148 28.2049 67.1463 27.8084C68.1174 28.9903 69.6431 29.7678 71.375 29.7678C73.1048 29.7678 74.6326 28.9922 75.6016 27.8103C75.931 28.203 76.3092 28.5253 76.6811 28.8457C77.0594 29.1719 77.4886 29.5392 77.9816 30.0667L78.6191 30.7446H79.875V34.6517H90.5C92.0661 34.6517 93.4495 35.5347 93.7619 36.1676L94.2825 38.5588H48.3676C48.5376 37.7051 48.7459 36.8221 48.952 36.2458C49.1836 35.6128 50.6159 34.6517 52.25 34.6517H62.875V30.7446Z" fill="#37474F"/>
<path d="M60.75 28.791V23.791H55.75V28.791H60.75ZM60.75 32.6981V37.6981H65.75V32.6981H60.75ZM47.5516 34.6517V39.6517H49.812L51.3053 37.9547L47.5516 34.6517ZM35.25 34.6517V29.6517H30.25V34.6517H35.25ZM35.25 99.119H30.25V101.314L31.8661 102.8L35.25 99.119ZM58.625 120.608L55.2411 124.289L56.6759 125.608H58.625V120.608ZM107.5 120.608V125.608H112.5V120.608H107.5ZM107.5 34.6517H112.5V29.6517H107.5V34.6517ZM95.1984 34.6517L91.4447 37.9547L92.9379 39.6517H95.1984V34.6517ZM82 32.6981H77V37.6981H82V32.6981ZM82 28.791H87V23.791H82V28.791ZM79.5924 28.791L75.943 32.2089L77.4248 33.791H79.5924V28.791ZM76.6832 24.921H71.6832V25.057L71.6906 25.1928L76.6832 24.921ZM66.1517 24.0693L61.2348 23.162L61.2304 23.1854L61.2263 23.2089L66.1517 24.0693ZM66.0668 24.921L71.0594 25.1928L71.0668 25.057V24.921H66.0668ZM63.1576 28.791V33.791H65.3252L66.807 32.2089L63.1576 28.791ZM56.5 115.892L53.1161 119.573L61.5 127.281V115.892H56.5ZM40.3797 101.073V96.0725H27.5531L36.9958 104.753L40.3797 101.073ZM56.5 101.073H61.5V96.0725H56.5V101.073ZM96.025 36.6052V31.6052H89.8203L91.1393 37.6681L96.025 36.6052ZM105.375 36.6052H110.375V31.6052H105.375V36.6052ZM105.375 118.655V123.655H110.375V118.655H105.375ZM58.625 118.655H53.625V123.655H58.625V118.655ZM58.625 99.119H63.625V94.119H58.625V99.119ZM37.375 99.119H32.375V104.119H37.375V99.119ZM37.375 36.6052V31.6052H32.375V36.6052H37.375ZM46.6443 36.6052L51.4797 37.8775L53.1301 31.6052H46.6443V36.6052ZM45.875 40.5123L40.9278 39.7875L40.0891 45.5123H45.875V40.5123ZM96.875 40.5123V45.5123H103.08L101.761 39.4494L96.875 40.5123ZM68.2279 24.5225L63.2922 23.7229L63.282 23.7857L63.2735 23.8488L68.2279 24.5225ZM68.2704 24.249L73.1093 25.5077L73.1194 25.4691L73.1288 25.4304L68.2704 24.249ZM74.554 24.7979L79.3787 26.1104L79.5756 25.3863L79.5514 24.6363L74.554 24.7979ZM74.5497 24.8136L69.7251 23.5011L69.5156 24.2712L69.5562 25.0682L74.5497 24.8136ZM74.5561 24.9386L79.555 25.0455L79.5588 24.8646L79.5496 24.684L74.5561 24.9386ZM68.1918 24.921H63.1918V24.9542L63.1922 24.9875L68.1918 24.921ZM62.875 30.7446V25.7446H57.875V30.7446H62.875ZM64.1309 30.7446V35.7446H66.2924L67.7732 34.1699L64.1309 30.7446ZM64.7684 30.0667L68.4107 33.4921L68.416 33.4865L68.4212 33.4809L64.7684 30.0667ZM66.0689 28.8457L62.8168 25.0478L62.8104 25.0533L62.8039 25.0589L66.0689 28.8457ZM67.1463 27.8084L71.0094 24.6341L67.1793 19.9727L63.31 24.6016L67.1463 27.8084ZM75.6016 27.8103L79.4324 24.597L75.5576 19.9777L71.735 24.6402L75.6016 27.8103ZM76.6811 28.8457L79.9468 25.0595L79.9447 25.0576L76.6811 28.8457ZM77.9816 30.0667L74.3288 33.4809L74.334 33.4865L74.3393 33.4921L77.9816 30.0667ZM78.6191 30.7446L74.9768 34.1699L76.4576 35.7446H78.6191V30.7446ZM79.875 30.7446H84.875V25.7446H79.875V30.7446ZM79.875 34.6517H74.875V39.6517H79.875V34.6517ZM93.7619 36.1676L98.6474 35.1039L98.517 34.5047L98.2456 33.9548L93.7619 36.1676ZM94.2825 38.5588V43.5588H100.488L99.168 37.4951L94.2825 38.5588ZM48.3676 38.5588L43.4639 37.5823L42.2738 43.5588H48.3676V38.5588ZM48.952 36.2458L44.2565 34.5275L44.2502 34.5447L44.2441 34.5619L48.952 36.2458ZM62.875 34.6517V39.6517H67.875V34.6517H62.875ZM55.75 28.791V32.6981H65.75V28.791H55.75ZM60.75 27.6981H52.25V37.6981H60.75V27.6981ZM52.25 27.6981C49.149 27.6981 45.8602 29.005 43.798 31.3486L51.3053 37.9547C51.2502 38.0174 51.2342 38.0194 51.2843 37.9849C51.3319 37.9521 51.4146 37.9034 51.5313 37.854C51.7799 37.7488 52.0444 37.6981 52.25 37.6981V27.6981ZM47.5516 29.6517H35.25V39.6517H47.5516V29.6517ZM30.25 34.6517V99.119H40.25V34.6517H30.25ZM31.8661 102.8L55.2411 124.289L62.0089 116.927L38.6339 95.4381L31.8661 102.8ZM58.625 125.608H107.5V115.608H58.625V125.608ZM112.5 120.608V34.6517H102.5V120.608H112.5ZM107.5 29.6517H95.1984V39.6517H107.5V29.6517ZM98.952 31.3486C96.8898 29.005 93.601 27.6981 90.5 27.6981V37.6981C90.7056 37.6981 90.9701 37.7488 91.2187 37.854C91.3354 37.9034 91.4181 37.9521 91.4657 37.9849C91.5158 38.0194 91.4998 38.0173 91.4447 37.9547L98.952 31.3486ZM90.5 27.6981H82V37.6981H90.5V27.6981ZM87 32.6981V28.791H77V32.6981H87ZM82 23.791H79.5924V33.791H82V23.791ZM83.2417 25.3731C82.6285 24.7183 82.0884 24.2306 81.668 23.8648C81.567 23.7769 81.4713 23.6948 81.3917 23.6264C81.3078 23.5543 81.2443 23.4997 81.186 23.4489C81.1291 23.3993 81.0902 23.3647 81.0622 23.339C81.0345 23.3137 81.0247 23.3038 81.0267 23.3058C81.0511 23.3302 81.2915 23.5768 81.4844 24.0047C81.6694 24.4151 81.6785 24.6985 81.6759 24.6492L71.6906 25.1928C71.74 26.0998 71.9117 27.1026 72.3681 28.1148C72.8323 29.1445 73.4528 29.8754 73.9644 30.3857C74.3687 30.789 74.9175 31.2467 75.1039 31.4089C75.3831 31.6518 75.6478 31.8937 75.943 32.2089L83.2417 25.3731ZM81.6832 24.921C81.6832 24.9956 81.6816 25.0646 81.679 25.1271C81.6764 25.1896 81.6728 25.2469 81.6688 25.2982C81.6649 25.3495 81.6605 25.3961 81.6562 25.4372C81.6519 25.4783 81.6475 25.5152 81.6434 25.5468C81.6394 25.5785 81.6355 25.6063 81.6322 25.6292C81.6288 25.6521 81.6259 25.6715 81.6235 25.6861C81.6213 25.7006 81.6194 25.7122 81.6183 25.7188C81.6173 25.7248 81.6164 25.7298 81.6167 25.728C81.6168 25.7279 81.6171 25.726 81.6174 25.7239C81.6178 25.7217 81.6184 25.7182 81.6191 25.714C81.6204 25.7059 81.6226 25.6927 81.6251 25.6766C81.6277 25.6604 81.6309 25.6394 81.6345 25.615C81.638 25.5905 81.6421 25.5611 81.6464 25.5279C81.6506 25.4947 81.6552 25.4563 81.6597 25.4137C81.6642 25.371 81.6687 25.3229 81.6727 25.27C81.6768 25.2172 81.6804 25.1584 81.6831 25.0944C81.6858 25.0304 81.6875 24.96 81.6875 24.8839H71.6875C71.6875 24.8093 71.6892 24.7403 71.6918 24.6778C71.6944 24.6153 71.698 24.558 71.7019 24.5067C71.7058 24.4554 71.7102 24.4088 71.7145 24.3677C71.7189 24.3265 71.7233 24.2897 71.7273 24.2581C71.7314 24.2264 71.7352 24.1986 71.7386 24.1757C71.7419 24.1528 71.7449 24.1334 71.7472 24.1188C71.7495 24.1043 71.7514 24.0927 71.7525 24.0861C71.7535 24.0801 71.7543 24.0751 71.754 24.0769C71.754 24.077 71.7537 24.0789 71.7533 24.0809C71.7529 24.0832 71.7524 24.0867 71.7517 24.0908C71.7503 24.099 71.7482 24.1122 71.7456 24.1283C71.7431 24.1445 71.7399 24.1655 71.7363 24.1899C71.7327 24.2144 71.7286 24.2437 71.7244 24.277C71.7201 24.3102 71.7156 24.3486 71.7111 24.3912C71.7066 24.4339 71.7021 24.482 71.698 24.5349C71.694 24.5877 71.6903 24.6465 71.6876 24.7105C71.685 24.7745 71.6832 24.8449 71.6832 24.921H81.6832ZM81.6875 24.8839C81.6875 19.0441 76.6639 15 71.375 15V25C71.5884 25 71.7081 25.0783 71.7457 25.1129C71.7626 25.1285 71.7487 25.1216 71.7284 25.0775C71.7057 25.0282 71.6875 24.958 71.6875 24.8839H81.6875ZM71.375 15C66.567 15 62.1378 18.268 61.2348 23.162L71.0687 24.9766C71.0435 25.1131 70.985 25.1356 71.0351 25.0961C71.0807 25.0601 71.1902 25 71.375 25V15ZM61.2263 23.2089C61.1779 23.4864 61.0625 24.1306 61.0625 24.8839H71.0625C71.0625 24.9966 71.0539 25.0684 71.053 25.0764C71.0525 25.0805 71.0533 25.0727 71.0573 25.0475C71.0592 25.0351 71.0618 25.0196 71.0651 24.9998C71.0685 24.9798 71.0724 24.9571 71.0772 24.9296L61.2263 23.2089ZM61.0625 24.8839C61.0625 24.96 61.0642 25.0304 61.0669 25.0944C61.0696 25.1584 61.0732 25.2172 61.0773 25.27C61.0813 25.3229 61.0858 25.371 61.0903 25.4137C61.0948 25.4563 61.0994 25.4947 61.1036 25.5279C61.1079 25.5611 61.112 25.5905 61.1155 25.615C61.1191 25.6394 61.1223 25.6604 61.1249 25.6766C61.1274 25.6927 61.1296 25.7059 61.1309 25.714C61.1316 25.7182 61.1322 25.7217 61.1326 25.7239C61.1329 25.726 61.1332 25.7279 61.1333 25.728C61.1336 25.7298 61.1327 25.7248 61.1317 25.7188C61.1306 25.7122 61.1287 25.7006 61.1265 25.6861C61.1241 25.6715 61.1212 25.6521 61.1178 25.6292C61.1145 25.6063 61.1106 25.5785 61.1066 25.5468C61.1025 25.5152 61.0981 25.4783 61.0938 25.4372C61.0895 25.3961 61.0851 25.3495 61.0812 25.2982C61.0772 25.2469 61.0736 25.1896 61.071 25.1271C61.0684 25.0646 61.0668 24.9956 61.0668 24.921H71.0668C71.0668 24.8449 71.065 24.7745 71.0624 24.7105C71.0597 24.6465 71.056 24.5877 71.052 24.5349C71.0479 24.482 71.0434 24.4339 71.0389 24.3912C71.0344 24.3486 71.0299 24.3102 71.0256 24.277C71.0214 24.2437 71.0173 24.2144 71.0137 24.1899C71.0101 24.1655 71.0069 24.1445 71.0044 24.1283C71.0018 24.1122 70.9997 24.099 70.9983 24.0908C70.9976 24.0867 70.9971 24.0832 70.9967 24.0809C70.9963 24.0789 70.996 24.077 70.996 24.0769C70.9957 24.0751 70.9965 24.0801 70.9975 24.0861C70.9986 24.0927 71.0005 24.1043 71.0028 24.1188C71.0051 24.1334 71.0081 24.1528 71.0114 24.1757C71.0148 24.1986 71.0186 24.2264 71.0227 24.2581C71.0267 24.2897 71.0311 24.3265 71.0355 24.3677C71.0398 24.4088 71.0442 24.4554 71.0481 24.5067C71.052 24.558 71.0556 24.6153 71.0582 24.6778C71.0608 24.7403 71.0625 24.8093 71.0625 24.8839H61.0625ZM61.0741 24.6492C61.0715 24.6985 61.0806 24.4151 61.2656 24.0047C61.4585 23.5768 61.6989 23.3302 61.7233 23.3058C61.7253 23.3038 61.7155 23.3137 61.6878 23.339C61.6598 23.3647 61.6209 23.3993 61.564 23.4489C61.5057 23.4997 61.4422 23.5543 61.3583 23.6264C61.2787 23.6948 61.183 23.7769 61.082 23.8648C60.6616 24.2306 60.1215 24.7183 59.5083 25.3731L66.807 32.2089C67.1022 31.8937 67.3669 31.6518 67.6461 31.4089C67.8325 31.2467 68.3813 30.789 68.7856 30.3857C69.2972 29.8754 69.9177 29.1445 70.3819 28.1148C70.8383 27.1026 71.01 26.0998 71.0594 25.1928L61.0741 24.6492ZM63.1576 23.791H60.75V33.791H63.1576V23.791ZM59.8839 112.211L43.7637 97.3916L36.9958 104.753L53.1161 119.573L59.8839 112.211ZM40.3797 106.073H56.5V96.0725H40.3797V106.073ZM51.5 101.073V115.892H61.5V101.073H51.5ZM96.025 41.6052H105.375V31.6052H96.025V41.6052ZM100.375 36.6052V118.655H110.375V36.6052H100.375ZM105.375 113.655H58.625V123.655H105.375V113.655ZM63.625 118.655V99.119H53.625V118.655H63.625ZM58.625 94.119H37.375V104.119H58.625V94.119ZM42.375 99.119V36.6052H32.375V99.119H42.375ZM37.375 41.6052H46.6443V31.6052H37.375V41.6052ZM41.8088 35.3329C41.5361 36.3695 41.3162 37.4994 41.171 38.3125C41.0962 38.7314 41.0365 39.0926 40.9952 39.3511C40.9746 39.4807 40.9583 39.5854 40.947 39.6598C40.9413 39.6971 40.9368 39.7268 40.9336 39.7483C40.932 39.759 40.9307 39.7677 40.9298 39.7743C40.9293 39.7776 40.9289 39.7803 40.9285 39.7825C40.9284 39.7837 40.9282 39.7846 40.9281 39.7855C40.9281 39.7859 40.928 39.7863 40.9279 39.7866C40.9279 39.7868 40.9279 39.787 40.9279 39.7871C40.9278 39.7873 40.9278 39.7875 45.875 40.5123C50.8222 41.2371 50.8222 41.2373 50.8221 41.2375C50.8221 41.2376 50.8221 41.2377 50.8221 41.2378C50.8221 41.2381 50.822 41.2382 50.822 41.2384C50.822 41.2387 50.8219 41.2388 50.8219 41.2389C50.8219 41.2389 50.822 41.2385 50.8221 41.2375C50.8224 41.2356 50.823 41.2316 50.8239 41.2257C50.8257 41.2139 50.8286 41.1943 50.8327 41.1675C50.8409 41.114 50.8535 41.0322 50.8702 40.9273C50.9038 40.717 50.9532 40.4178 51.0152 40.071C51.1435 39.3524 51.3083 38.5288 51.4797 37.8775L41.8088 35.3329ZM45.875 45.5123H96.875V35.5123H45.875V45.5123ZM101.761 39.4494L100.911 35.5423L91.1393 37.6681L91.9893 41.5752L101.761 39.4494ZM73.1918 24.8546C73.1918 25.1017 73.1688 25.2834 73.1626 25.3313C73.1595 25.355 73.1572 25.3691 73.1614 25.3414C73.1635 25.3271 73.1733 25.2626 73.1823 25.1961L63.2735 23.8488C63.2751 23.8371 63.2766 23.8273 63.2705 23.8678C63.2665 23.8949 63.2562 23.9639 63.2459 24.0428C63.2253 24.2011 63.1918 24.4942 63.1918 24.8546H73.1918ZM73.1635 25.3221C73.1816 25.2106 73.1934 25.1181 73.1992 25.0717C73.2019 25.0495 73.2047 25.0262 73.2054 25.0206C73.2066 25.0104 73.2063 25.0132 73.2055 25.0197C73.2039 25.032 73.1966 25.0893 73.183 25.1679C73.169 25.2488 73.1461 25.3663 73.1093 25.5077L63.4314 22.9903C63.3382 23.3486 63.2997 23.646 63.2864 23.7503C63.2826 23.7796 63.2795 23.8053 63.278 23.8179C63.2769 23.8266 63.2767 23.8285 63.2762 23.833C63.2758 23.8362 63.2757 23.8366 63.2758 23.8356C63.2759 23.835 63.2816 23.7885 63.2922 23.7229L73.1635 25.3221ZM73.1288 25.4304C72.8584 26.5424 71.9695 26.9536 71.375 26.9536V16.9536C67.7418 16.9536 64.3198 19.3339 63.4119 23.0676L73.1288 25.4304ZM71.375 26.9536C70.759 26.9536 69.6039 26.4214 69.5566 24.9596L79.5514 24.6363C79.4021 20.0215 75.4462 16.9536 71.375 16.9536V26.9536ZM69.7293 23.4854L69.7251 23.5011L79.3744 26.126L79.3787 26.1104L69.7293 23.4854ZM69.5562 25.0682L69.5626 25.1932L79.5496 24.684L79.5433 24.5589L69.5562 25.0682ZM69.5573 24.8317C69.5889 23.3507 70.7576 22.8142 71.375 22.8142V32.8142C75.4646 32.8142 79.4553 29.7069 79.555 25.0455L69.5573 24.8317ZM71.375 22.8142C71.9815 22.8142 73.1713 23.3464 73.1913 24.8545L63.1922 24.9875C63.2547 29.6917 67.2835 32.8142 71.375 32.8142V22.8142ZM73.1918 24.921V24.8546H63.1918V24.921H73.1918ZM62.875 35.7446H64.1309V25.7446H62.875V35.7446ZM67.7732 34.1699L68.4107 33.4921L61.126 26.6413L60.4885 27.3192L67.7732 34.1699ZM68.4212 33.4809C68.7104 33.1715 68.9556 32.9586 69.3338 32.6325L62.8039 25.0589C62.4299 25.3814 61.8124 25.9069 61.1155 26.6525L68.4212 33.4809ZM69.3209 32.6436C69.6625 32.3511 70.3459 31.7767 70.9825 31.0151L63.31 24.6016C63.3101 24.6015 63.3034 24.6095 63.2867 24.6269C63.2697 24.6445 63.2436 24.6706 63.2043 24.7074C63.1157 24.7905 63.0101 24.8823 62.8168 25.0478L69.3209 32.6436ZM63.2831 30.9826C65.1924 33.3063 68.129 34.7678 71.375 34.7678V24.7678C71.1572 24.7678 71.0424 24.6742 71.0094 24.6341L63.2831 30.9826ZM71.375 34.7678C74.6127 34.7678 77.5559 33.3128 79.4682 30.9804L71.735 24.6402C71.7093 24.6716 71.5968 24.7678 71.375 24.7678V34.7678ZM71.7709 31.0236C72.4074 31.7825 73.1102 32.3689 73.4176 32.6337L79.9447 25.0576C79.7366 24.8784 79.6298 24.7863 79.5332 24.6963C79.4485 24.6174 79.4261 24.5896 79.4324 24.597L71.7709 31.0236ZM73.4155 32.6319C73.7968 32.9608 74.0396 33.1715 74.3288 33.4809L81.6345 26.6525C80.9376 25.9069 80.322 25.3831 79.9468 25.0595L73.4155 32.6319ZM74.3393 33.4921L74.9768 34.1699L82.2615 27.3192L81.624 26.6413L74.3393 33.4921ZM78.6191 35.7446H79.875V25.7446H78.6191V35.7446ZM74.875 30.7446V34.6517H84.875V30.7446H74.875ZM79.875 39.6517H90.5V29.6517H79.875V39.6517ZM90.5 39.6517C90.3714 39.6517 90.3274 39.6255 90.3068 39.6148C90.2882 39.6052 90.2012 39.5594 90.0648 39.4411C89.9943 39.38 89.8855 39.2777 89.7592 39.1265C89.6389 38.9825 89.4533 38.7352 89.2782 38.3804L98.2456 33.9548C97.3983 32.238 95.8655 31.2307 94.8954 30.7297C93.7135 30.1194 92.1947 29.6517 90.5 29.6517V39.6517ZM88.8763 37.2313L89.397 39.6225L99.168 37.4951L98.6474 35.1039L88.8763 37.2313ZM94.2825 33.5588H48.3676V43.5588H94.2825V33.5588ZM53.2713 39.5353C53.4351 38.713 53.5858 38.1368 53.6599 37.9296L44.2441 34.5619C43.9059 35.5073 43.6402 36.6971 43.4639 37.5823L53.2713 39.5353ZM53.6475 37.964C53.4695 38.4504 53.2467 38.7889 53.1069 38.9772C52.9585 39.1769 52.8259 39.3113 52.7424 39.3891C52.5798 39.5404 52.4723 39.5993 52.4515 39.6105C52.4248 39.6249 52.3814 39.6517 52.25 39.6517V29.6517C50.4845 29.6517 48.9078 30.159 47.6987 30.8122C47.0865 31.1429 46.4754 31.5607 45.9281 32.0702C45.4544 32.5113 44.696 33.3266 44.2565 34.5275L53.6475 37.964ZM52.25 39.6517H62.875V29.6517H52.25V39.6517ZM67.875 34.6517V30.7446H57.875V34.6517H67.875Z" fill="black" mask="url(#path-8-inside-1_452_200)"/>
<mask id="path-10-inside-2_452_200" fill="white">
<path d="M109.625 28.791H84.125V30.7446H109.625C110.798 30.7446 111.75 31.6217 111.75 32.6981V122.562C111.75 123.638 110.798 124.515 109.625 124.515H33.125C31.952 124.515 31 123.638 31 122.562V32.6981C31 31.6217 31.952 30.7446 33.125 30.7446H58.625V28.791H33.125C30.7875 28.791 28.875 30.5492 28.875 32.6981V122.562C28.875 124.711 30.7875 126.469 33.125 126.469H109.625C111.963 126.469 113.875 124.711 113.875 122.562V32.6981C113.875 30.5492 111.963 28.791 109.625 28.791Z"/>
</mask>
<path d="M109.625 28.791H84.125V30.7446H109.625C110.798 30.7446 111.75 31.6217 111.75 32.6981V122.562C111.75 123.638 110.798 124.515 109.625 124.515H33.125C31.952 124.515 31 123.638 31 122.562V32.6981C31 31.6217 31.952 30.7446 33.125 30.7446H58.625V28.791H33.125C30.7875 28.791 28.875 30.5492 28.875 32.6981V122.562C28.875 124.711 30.7875 126.469 33.125 126.469H109.625C111.963 126.469 113.875 124.711 113.875 122.562V32.6981C113.875 30.5492 111.963 28.791 109.625 28.791Z" fill="#37474F"/>
<path d="M84.125 28.791V23.791H79.125V28.791H84.125ZM84.125 30.7446H79.125V35.7446H84.125V30.7446ZM58.625 30.7446V35.7446H63.625V30.7446H58.625ZM58.625 28.791H63.625V23.791H58.625V28.791ZM109.625 23.791H84.125V33.791H109.625V23.791ZM79.125 28.791V30.7446H89.125V28.791H79.125ZM84.125 35.7446H109.625V25.7446H84.125V35.7446ZM109.625 35.7446C108.437 35.7446 106.75 34.7677 106.75 32.6981H116.75C116.75 28.4757 113.159 25.7446 109.625 25.7446V35.7446ZM106.75 32.6981V122.562H116.75V32.6981H106.75ZM106.75 122.562C106.75 120.492 108.437 119.515 109.625 119.515V129.515C113.159 129.515 116.75 126.784 116.75 122.562H106.75ZM109.625 119.515H33.125V129.515H109.625V119.515ZM33.125 119.515C34.3125 119.515 36 120.492 36 122.562H26C26 126.784 29.5915 129.515 33.125 129.515V119.515ZM36 122.562V32.6981H26V122.562H36ZM36 32.6981C36 34.7677 34.3125 35.7446 33.125 35.7446V25.7446C29.5915 25.7446 26 28.4757 26 32.6981H36ZM33.125 35.7446H58.625V25.7446H33.125V35.7446ZM63.625 30.7446V28.791H53.625V30.7446H63.625ZM58.625 23.791H33.125V33.791H58.625V23.791ZM33.125 23.791C28.4304 23.791 23.875 27.4001 23.875 32.6981H33.875C33.875 33.1593 33.6619 33.4775 33.5074 33.6196C33.3583 33.7566 33.2143 33.791 33.125 33.791V23.791ZM23.875 32.6981V122.562H33.875V32.6981H23.875ZM23.875 122.562C23.875 127.86 28.4304 131.469 33.125 131.469V121.469C33.2143 121.469 33.3583 121.503 33.5074 121.64C33.6619 121.782 33.875 122.1 33.875 122.562H23.875ZM33.125 131.469H109.625V121.469H33.125V131.469ZM109.625 131.469C114.32 131.469 118.875 127.86 118.875 122.562H108.875C108.875 122.1 109.088 121.782 109.243 121.64C109.392 121.503 109.536 121.469 109.625 121.469V131.469ZM118.875 122.562V32.6981H108.875V122.562H118.875ZM118.875 32.6981C118.875 27.4001 114.32 23.791 109.625 23.791V33.791C109.536 33.791 109.392 33.7566 109.243 33.6196C109.088 33.4775 108.875 33.1593 108.875 32.6981H118.875Z" fill="black" mask="url(#path-10-inside-2_452_200)"/>
<path d="M87.3125 61.0247C92.0069 61.0247 95.8125 57.5261 95.8125 53.2105C95.8125 48.8948 92.0069 45.3962 87.3125 45.3962C82.6181 45.3962 78.8125 48.8948 78.8125 53.2105C78.8125 57.5261 82.6181 61.0247 87.3125 61.0247Z" fill="#E04955"/>
<path d="M87.3125 62.0014C82.0404 62.0014 77.75 58.0572 77.75 53.2104C77.75 48.3637 82.0404 44.4194 87.3125 44.4194C92.5846 44.4194 96.875 48.3637 96.875 53.2104C96.875 58.0572 92.5846 62.0014 87.3125 62.0014ZM87.3125 46.373C83.2113 46.373 79.875 49.4401 79.875 53.2104C79.875 56.9808 83.2113 60.0479 87.3125 60.0479C91.4137 60.0479 94.75 56.9808 94.75 53.2104C94.75 49.4401 91.4137 46.373 87.3125 46.373Z" fill="#37474F"/>
<path d="M88.375 48.3265H86.25V58.0943H88.375V48.3265Z" fill="#37474F"/>
<path d="M92.625 52.2336H82V54.1872H92.625V52.2336Z" fill="#37474F"/>
<path d="M99 71.7692H62.875V73.7228H99V71.7692Z" fill="#37474F"/>
<path d="M99 65.9086H62.875V67.8621H99V65.9086Z" fill="#37474F"/>
<path d="M56.5 86.3759V95.2119H43.75V83.4905H51.6316L52.8471 81.537H41.625V97.1654H58.625V82.9631L56.5 86.3759Z" fill="#37474F"/>
<path d="M50.1951 93.1626L44.991 85.9852L46.759 84.903L50.0548 89.4469L57.7027 77.1454L59.5472 78.1144L50.1951 93.1626Z" fill="#FF5722"/>
<path d="M56.5 62.9333V71.7692H43.75V60.0479H51.6316L52.8471 58.0943H41.625V73.7227H58.625V59.5204L56.5 62.9333Z" fill="#37474F"/>
<path d="M50.1951 69.7199L44.991 62.5425L46.759 61.4603L50.0548 66.0042L57.7027 53.7027L59.5472 54.6717L50.1951 69.7199Z" fill="#FF5722"/>
<path d="M99 95.2119H62.875V97.1654H99V95.2119Z" fill="#37474F"/>
<path d="M99 89.3512H62.875V91.3048H99V89.3512Z" fill="#37474F"/>
</svg>
